<svg id="Lager_1" data-name="Lager 1" xmlns="http://www.w3.org/2000/svg" viewBox="0 0 443.13 107.17"><defs><style>.cls-1{fill:#545454;}.cls-1,.cls-2,.cls-3{stroke:#fff;}.cls-2{fill:#4a4a49;stroke-miterlimit:10;}.cls-2,.cls-3{fill-rule:evenodd;}.cls-3{fill:#282828;}.cls-4,.cls-5,.cls-6,.cls-7{isolation:isolate;}.cls-4,.cls-6,.cls-7{font-size:56.31px;font-family:JuliusSansOne-Regular, Julius Sans One;}.cls-6{letter-spacing:-0.02em;}.cls-7{letter-spacing:-0.01em;}</style></defs><path class="cls-1" d="M211.44.71c6.77,1.8,3.75,10.2,1,14.2-7.1,16-10.36,35.09-3.59,51.82,4.82,11.59,15,22.61,28,23.42,11.27.66,21.87-6.12,27.83-15.58,9.88-14.77,9.88-34.36,4.16-50.84C267.05,18,264.36,12.55,262.15,7c-1.39-6.53,9.39-9.14,11.51-3.1,3.51,5.87,7,11.91,9.14,18.52A79.62,79.62,0,0,1,285.57,63c-4.32,15.26-13.46,30-27.82,37.21-9.88,4.82-21.55,6.12-31.91,2.29-14.69-4.41-25.06-17.63-30.6-31.67a36.69,36.69,0,0,1-3.84-16.32c-1.55-18,3.75-36.39,13.79-51.16,1.47-1.72,3.92-3.35,6.29-2.62Zm-14,41.13a4,4,0,0,0-.33,2.37l1.88.24a3.92,3.92,0,0,0,.33-2.36Zm81-.49a4,4,0,0,0,.33,2.37l1.88-.33a3.92,3.92,0,0,0-.33-2.36ZM199.68,57.51l-1.87.33c-.25.08.16,2.36.41,2.28l1.87-.32C200.34,59.8,199.93,57.51,199.68,57.51Zm78.92-.82c-.25-.08-.66,2.29-.41,2.37l1.88.33c.24.08.65-2.29.4-2.37ZM203.11,72.93c-.24.09.82,2.21,1,2.13l1.71-.9c.25-.08-.81-2.2-1-2.12l-1.72.89Zm71.32,1.44c.25.08,1.23-2,1-2.12l-1.71-.82c-.24-.08-1.22,2-1,2.13Zm-63.16,11c-.16.16,1.39,1.88,1.55,1.71l1.39-1.3c.16-.17-1.39-1.88-1.55-1.72Zm54.84-2c-.16-.16-1.71,1.55-1.55,1.8l1.39,1.3c.24.16,1.71-1.55,1.55-1.79Z" transform="translate(-178.12 0)"/><path class="cls-2" d="M213.23,68.69" transform="translate(-178.12 0)"/><path class="cls-2" d="M213,68.94" transform="translate(-178.12 0)"/><path class="cls-2" d="M212.74,69.18" transform="translate(-178.12 0)"/><path class="cls-2" d="M212.41,69.43" transform="translate(-178.12 0)"/><path class="cls-3" d="M210.46,71c.16,0,1.87-1.07,5.22-3.11,3.51-2.2,5.72-3.67,6.61-4.4A17.12,17.12,0,0,0,226,59.06c1.39-2.2,2.61-4.16,3.67-6a3.69,3.69,0,0,0-.81-4.4c-1.39-1.39-2.53-2.13-3.43-2.13A6.92,6.92,0,0,0,223,47a4,4,0,0,0-2.12,1.88c-.49.9-1.47,3.43-2.94,7.43l-2.12,5.79-.25.25-.25.49.08.65V65l-.32-1.23-.17-.24-.16-.74L215,62l.24-.74v-.73h-.07l-.16.16-.09.17-.08.16-.24.24-.25.25-.08.08-.16.16-.17.09-.08.08-1.06,1.39c-.9,1.06-1.38,1.55-1.38,1.55l-.25.08-.16.08-.17.16-.24.08-.82.17-.24.24-.25.25h-.49v-.09l.09-.16.24-.32.08-.09.17-.08.08-.24.16-.25.24-.24c.17-.17,1.07-1.55,2.62-4.16a53,53,0,0,0,2.93-5.39l.49-1.14v-1l.25-.65-.58.22-.33.16-.16.25-.17.24-.16.25-.16.24-.17.25-.08.08-.08.08-4.69,7.45c-3.18,5-4.9,7.67-5.31,8.16l-.49.73-.08.16-.16.09-.16.16-.17.08-.16.33-.08.16-.17.16-.08.09-.16.24-.16.16-.17.17-1.14,1-1.58,1.31-.16.08-.17.17-.16.08-.16.08-.08.08-.17.17-.16.08-.16.08-.17.16-.24.25-.25.24-.24.08-.25.09-4,2.12-14.69,12L191,78.37l.41-.41.49-.4.33-.25.32-.24.17-.17,2-1.38c.09-.09,1.72-1.88,1.88-2a13.49,13.49,0,0,0,2.69-2.37c.9-1.55,3.43-2.86,5-5.63l2.35-3.85.16-.32.25-.25.16-.32.16-.17.08-.08.17-.16.08-.08c0-.17,1.22-2.37,3.67-6.78a82.19,82.19,0,0,1,4.49-7.42,2.82,2.82,0,0,1,1.88-.9,2.37,2.37,0,0,0,1.87-1.14c.49-.66,1.31-1.64,2.37-3a19,19,0,0,1,2.12-2.53l.82-.25h.49l.81.25c.33.32,1.23,1.22,2.62,2.77,1.06,1.55,1.79,2.53,2.12,3a1.46,1.46,0,0,0,.81.49l.17.16L232,45l.24.24.25.25.16.16.65.81.25-1.55,1.88-3.51a23.65,23.65,0,0,1,2.93-4.65,19.66,19.66,0,0,0,2.61-2.12,27.29,27.29,0,0,0,4.25-4.41c1.79-2.2,2.85-3.42,3.18-3.75a7.48,7.48,0,0,1,2.12-.9,6.58,6.58,0,0,1,3.1,1.15c1.06.73,2.28,1.63,3.67,2.53,1.06,1.06,2.2,2.28,3.42,3.75a22.9,22.9,0,0,0,3.68,3.75c1.38.9,3.51,2.21,6.36,3.76s.25,1.06,1.47,1.63c1.06.9-.41.73-.24.73s0,1,0,1.15l-.25-1-.24.24c-.17.16.24.33.24.41-.16,0,1.06.9.49,1.06l-.08.08c0-.16-3.75-1.55-5.47-2.53s4.08.41,2.69-.24a25.6,25.6,0,0,1-4.24-1.63c-1.22-.66-2.53-1.39-4-2.29a20.28,20.28,0,0,0-4-1.88,5.07,5.07,0,0,1-2.93-1.87L253.1,33l-.17-.08-.16-.08-.08-.09-.17-.08-.16-.08-.16-.08-.17-.08-.4-.08-.17-.08-.08-.09-.16-.08-.08-.08.24,2.29c.16,1.38.41,2.28.82,2.52s1.14.41,1.87.74A3.16,3.16,0,0,1,256,39.21a3.37,3.37,0,0,0,1.55,1.39,2.29,2.29,0,0,0,.82.24h.27l.25.25.24.24.08.08.17.09.08.16h0l2.2.57-3.75.57a9.08,9.08,0,0,1-2.21-.08,6.93,6.93,0,0,0-2.44-.24l-1.88.24-.24-.24-.25-.25-.16-.16-.08-.33c0-.33.24-.65.81-.9l.82-.49v-.49l-.25-.08-.32-.16a7.07,7.07,0,0,0-1.55-.73,3.36,3.36,0,0,1-1.87-2.52l-.82-1.88-.16-.08-.16-.08-.25-.25h-.49l-.16.41-.08.32-.25.49-1.28,4.18a19.69,19.69,0,0,1-3.45,6.89c-1.22,1.55-2.45,3.19-3.67,4.9a20.87,20.87,0,0,0-2.12,3.51,3.64,3.64,0,0,0-.49,1.63v.73l-.25.25-.24.24-2.13,1.74,1.64-2.86A9.06,9.06,0,0,1,234.94,53a27.55,27.55,0,0,1,2.94-5.14,27.51,27.51,0,0,0,2.93-5.14L241.87,40V38.56h-1.55l-.32.08-.25.16-.24.17-.17.08-.16.08-.82,1.63c-.48,1.06-1.46,3.27-2.93,6.53a67.58,67.58,0,0,1-5.06,9.55,55.06,55.06,0,0,1-6.12,7.67,26.71,26.71,0,0,1-5.31,4.16,26.2,26.2,0,0,1-5.3,2.29,26.26,26.26,0,0,0-2.94,1.14l-.24.08-.17.08-.24.08-.33.08-.24.09-.66.32-1.38.74,1.38-1.2" transform="translate(-178.12 0)"/><text class="cls-4" transform="translate(117.34 48.78)">Mesch</text><g class="cls-5"><text class="cls-4" transform="translate(113 94.33)">h</text><text class="cls-6" transform="translate(157.09 94.33)">o</text><text class="cls-4" transform="translate(201.68 94.33)">vsl</text><text class="cls-7" transform="translate(290.31 94.33)">a</text><text class="cls-4" transform="translate(323.25 94.33)">geri</text></g></svg>